<?xml version="1.0" encoding="utf-8"?>
<!-- Generator: Adobe Illustrator 15.0.0, SVG Export Plug-In . SVG Version: 6.00 Build 0)  -->
<!DOCTYPE svg PUBLIC "-//W3C//DTD SVG 1.1//EN" "http://www.w3.org/Graphics/SVG/1.1/DTD/svg11.dtd">
<svg version="1.1" id="Layer_1" xmlns="http://www.w3.org/2000/svg" xmlns:xlink="http://www.w3.org/1999/xlink" x="0px" y="0px"
	 width="19.843px" height="13.021px" viewBox="0 0 19.843 13.021" enable-background="new 0 0 19.843 13.021" xml:space="preserve">
<path id="mail" fill="#CCCCCC" d="M17.362,0H2.48C1.11,0,0,1.111,0,2.48v8.061c0,1.37,1.11,2.48,2.48,2.48h14.882
	c1.37,0,2.479-1.11,2.479-2.48V2.48C19.843,1.111,18.732,0,17.362,0z M1.24,3.255L5.58,6.51L1.24,9.767V3.255z M18.603,10.541
	c0,0.686-0.559,1.24-1.24,1.24H2.48c-0.684,0-1.24-0.556-1.24-1.24l4.856-3.643L8.804,8.93c0.331,0.245,0.724,0.371,1.117,0.371
	c0.392,0,0.784-0.125,1.116-0.371l2.709-2.032L18.603,10.541L18.603,10.541z M18.603,9.767L14.262,6.51l4.341-3.255V9.767z
	 M10.666,8.434c-0.217,0.163-0.475,0.249-0.744,0.249c-0.271,0-0.528-0.086-0.744-0.249L6.613,6.51L6.097,6.123L1.24,2.481l0,0
	c0-0.685,0.556-1.24,1.24-1.24h14.882c0.683,0,1.24,0.556,1.24,1.24L10.666,8.434z"/>
</svg>
