<?xml version="1.0" encoding="utf-8"?>
<!-- Generator: Adobe Illustrator 15.0.0, SVG Export Plug-In . SVG Version: 6.00 Build 0)  -->
<!DOCTYPE svg PUBLIC "-//W3C//DTD SVG 1.1//EN" "http://www.w3.org/Graphics/SVG/1.1/DTD/svg11.dtd">
<svg version="1.1" id="Layer_1" xmlns="http://www.w3.org/2000/svg" xmlns:xlink="http://www.w3.org/1999/xlink" x="0px" y="0px"
	 width="19.843px" height="18.6px" viewBox="0 0 19.843 18.6" enable-background="new 0 0 19.843 18.6" xml:space="preserve">
<g id="monitor">
	<path fill="#CCCCCC" d="M16.742,2.478L3.101,2.48c-0.343,0-0.62,0.275-0.62,0.618v8.683c0,0.343,0.277,0.619,0.62,0.619h13.643
		c0.342,0,0.619-0.276,0.619-0.619V3.098C17.362,2.755,17.085,2.478,16.742,2.478z M16.742,11.781H3.101V3.098h13.643v8.684H16.742z
		"/>
	<path fill="#CCCCCC" d="M17.982,0H1.86C0.833,0,0,0.832,0,1.86v12.402c0,1.025,0.83,1.856,1.854,1.859h6.207v0.754L4.19,17.378
		c-0.276,0.069-0.47,0.316-0.47,0.602c0,0.344,0.277,0.62,0.62,0.62h11.162c0.344,0,0.621-0.276,0.621-0.62
		c0-0.284-0.194-0.531-0.471-0.602l-3.871-0.503v-0.754h6.207c1.024-0.003,1.854-0.834,1.854-1.859V1.86
		C19.843,0.832,19.009,0,17.982,0z M18.603,14.262c0,0.342-0.277,0.62-0.62,0.62h-5.581h-4.96H1.86c-0.342,0-0.62-0.278-0.62-0.62
		V1.86c0-0.342,0.278-0.619,0.62-0.619h16.122c0.342,0,0.62,0.277,0.62,0.619L18.603,14.262L18.603,14.262z"/>
</g>
</svg>
