<?xml version="1.0" encoding="utf-8"?>
<!-- Generator: Adobe Illustrator 15.0.0, SVG Export Plug-In . SVG Version: 6.00 Build 0)  -->
<!DOCTYPE svg PUBLIC "-//W3C//DTD SVG 1.1//EN" "http://www.w3.org/Graphics/SVG/1.1/DTD/svg11.dtd">
<svg version="1.1" id="Layer_1" xmlns="http://www.w3.org/2000/svg" xmlns:xlink="http://www.w3.org/1999/xlink" x="0px" y="0px"
	 width="19.843px" height="19.842px" viewBox="0 0 19.843 19.842" enable-background="new 0 0 19.843 19.842" xml:space="preserve">
<path id="usericon" fill="#CCCCCC" d="M19.291,17.569c-0.125-0.082-2.387-1.565-5.75-2.293c1.233-1.563,2.026-3.666,2.362-5.064
	c0.468-1.939,0.286-5.734-1.577-8.099C13.238,0.73,11.714,0,9.921,0C8.128,0,6.604,0.73,5.516,2.112
	c-1.863,2.364-2.044,6.159-1.577,8.099c0.336,1.399,1.128,3.502,2.363,5.065c-3.364,0.729-5.625,2.211-5.749,2.293
	c-0.455,0.304-0.658,0.867-0.5,1.392c0.157,0.522,0.641,0.881,1.187,0.881h17.362c0.547,0,1.028-0.356,1.188-0.881
	C19.949,18.438,19.744,17.873,19.291,17.569z M12.567,14.509l-0.202,0.258c-1.479,1.697-3.408,1.697-4.886,0l-0.203-0.258
	c-1.727-2.188-2.584-5.083-2.215-7.845C5.399,4.011,6.919,1.24,9.921,1.24c3,0,4.522,2.771,4.86,5.425
	C15.149,9.428,14.294,12.319,12.567,14.509z M1.24,18.604c0.085-0.06,2.186-1.437,5.324-2.115l1.54-0.333
	c0.55,0.362,1.154,0.586,1.817,0.586c0.663,0,1.267-0.226,1.816-0.586l1.541,0.333c3.112,0.673,5.207,2.037,5.324,2.115H1.24z"/>
</svg>
